REM DIRINDEX 1\2,1\3,1\4,1\5
REM DIRNAME folder01,folder02,folder03,folder04,folder05
TITLE ""
FILE "P1Q_t_0872-0881.mp3" MP3
  TRACK 01 AUDIO
    TITLE "3:cjc005_3520"
    INDEX 01 00:00:00
  TRACK 02 AUDIO
    TITLE "0:"
    INDEX 01 00:01:05
  TRACK 03 AUDIO
    TITLE "4:cjc005_3521"
    INDEX 01 00:01:34
  TRACK 04 AUDIO
    TITLE "0:"
    INDEX 01 00:02:65
  TRACK 05 AUDIO
    TITLE "5:cjc005_3522"
    INDEX 01 00:03:15
  TRACK 06 AUDIO
    TITLE "0:"
    INDEX 01 00:09:45
  TRACK 07 AUDIO
    TITLE "3:cjc005_3523"
    INDEX 01 00:10:16
  TRACK 08 AUDIO
    TITLE "0:"
    INDEX 01 00:11:27
  TRACK 09 AUDIO
    TITLE "4:cjc005_3524"
    INDEX 01 00:11:52
  TRACK 10 AUDIO
    TITLE "0:"
    INDEX 01 00:12:54
  TRACK 11 AUDIO
    TITLE "5:cjc005_3525"
    INDEX 01 00:13:02
  TRACK 12 AUDIO
    TITLE "0:"
    INDEX 01 00:16:06
  TRACK 13 AUDIO
    TITLE "3:cjc005_3526"
    INDEX 01 00:16:59
  TRACK 14 AUDIO
    TITLE "0:"
    INDEX 01 00:17:51
  TRACK 15 AUDIO
    TITLE "4:cjc005_3527"
    INDEX 01 00:18:15
  TRACK 16 AUDIO
    TITLE "0:"
    INDEX 01 00:19:28
  TRACK 17 AUDIO
    TITLE "5:cjc005_3528"
    INDEX 01 00:19:46
  TRACK 18 AUDIO
    TITLE "0:"
    INDEX 01 00:23:36
  TRACK 19 AUDIO
    TITLE "3:cjc005_3529"
    INDEX 01 00:24:12
  TRACK 20 AUDIO
    TITLE "0:"
    INDEX 01 00:25:11
  TRACK 21 AUDIO
    TITLE "4:cjc005_3530"
    INDEX 01 00:25:41
  TRACK 22 AUDIO
    TITLE "0:"
    INDEX 01 00:26:69
  TRACK 23 AUDIO
    TITLE "5:cjc005_3531"
    INDEX 01 00:27:20
  TRACK 24 AUDIO
    TITLE "0:"
    INDEX 01 00:31:24
  TRACK 25 AUDIO
    TITLE "3:cjc005_3532"
    INDEX 01 00:31:71
  TRACK 26 AUDIO
    TITLE "0:"
    INDEX 01 00:33:22
  TRACK 27 AUDIO
    TITLE "4:cjc005_3533"
    INDEX 01 00:33:46
  TRACK 28 AUDIO
    TITLE "0:"
    INDEX 01 00:34:43
  TRACK 29 AUDIO
    TITLE "5:cjc005_3534"
    INDEX 01 00:34:67
  TRACK 30 AUDIO
    TITLE "0:"
    INDEX 01 00:38:12
  TRACK 31 AUDIO
    TITLE "3:cjc005_3535"
    INDEX 01 00:38:69
  TRACK 32 AUDIO
    TITLE "0:"
    INDEX 01 00:40:03
  TRACK 33 AUDIO
    TITLE "4:cjc005_3536"
    INDEX 01 00:40:23
  TRACK 34 AUDIO
    TITLE "0:"
    INDEX 01 00:41:24
  TRACK 35 AUDIO
    TITLE "5:cjc005_3537"
    INDEX 01 00:41:49
  TRACK 36 AUDIO
    TITLE "0:"
    INDEX 01 00:45:69
  TRACK 37 AUDIO
    TITLE "3:cjc005_3538"
    INDEX 01 00:46:53
  TRACK 38 AUDIO
    TITLE "0:"
    INDEX 01 00:48:12
  TRACK 39 AUDIO
    TITLE "4:cjc005_3539"
    INDEX 01 00:48:34
  TRACK 40 AUDIO
    TITLE "0:"
    INDEX 01 00:49:35
  TRACK 41 AUDIO
    TITLE "5:cjc005_3540"
    INDEX 01 00:49:59
  TRACK 42 AUDIO
    TITLE "0:"
    INDEX 01 00:53:09
  TRACK 43 AUDIO
    TITLE "3:cjc005_3541"
    INDEX 01 00:54:01
  TRACK 44 AUDIO
    TITLE "0:"
    INDEX 01 00:55:30
  TRACK 45 AUDIO
    TITLE "4:cjc005_3542"
    INDEX 01 00:55:55
  TRACK 46 AUDIO
    TITLE "0:"
    INDEX 01 00:56:72
  TRACK 47 AUDIO
    TITLE "5:cjc005_3543"
    INDEX 01 00:57:21
  TRACK 48 AUDIO
    TITLE "0:"
    INDEX 01 01:00:51
  TRACK 49 AUDIO
    TITLE "3:cjc005_3544"
    INDEX 01 01:01:27
  TRACK 50 AUDIO
    TITLE "0:"
    INDEX 01 01:02:30
  TRACK 51 AUDIO
    TITLE "4:cjc005_3545"
    INDEX 01 01:02:63
  TRACK 52 AUDIO
    TITLE "0:"
    INDEX 01 01:03:47
  TRACK 53 AUDIO
    TITLE "5:cjc005_3546"
    INDEX 01 01:03:71
  TRACK 54 AUDIO
    TITLE "0:"
    INDEX 01 01:08:23
  TRACK 55 AUDIO
    TITLE "3:cjc005_3547"
    INDEX 01 01:09:01
  TRACK 56 AUDIO
    TITLE "0:"
    INDEX 01 01:10:08
  TRACK 57 AUDIO
    TITLE "4:cjc005_3548"
    INDEX 01 01:10:33
  TRACK 58 AUDIO
    TITLE "0:"
    INDEX 01 01:11:58
  TRACK 59 AUDIO
    TITLE "5:cjc005_3549"
    INDEX 01 01:12:03
  TRACK 60 AUDIO
    TITLE "0:"
    INDEX 01 01:16:03
